# xmcd CD database file
#
# Track frame offsets:
#	182
#	12920
#	25817
#	40362
#	54562
#	69385
#	83082
#	96010
#	109800
#	124047
#	138457
#	152552
#	166680
#	181645
#	199032
#	212485
#	225885
#	244122
#	257957
#	272747
#	286482
#	298540
#
# Disc length: 4145 seconds
#
# Revision: 0
# Processed by: cddbd v1.5.1PL0 Copyright (c) Steve Scherf et al.
# Submitted via: CDex 1.50Beta7
#
DISCID=28102f16
DTITLE=Buck Clayton - His Best Recordings 1937-1946
DYEAR=1997
DGENRE=Jazz
TTITLE0=Swinging at the Daisy Chain
TTITLE1=Why Was I Born?
TTITLE2=Good Morning Blues
TTITLE3=Don't You Miss Your Baby?
TTITLE4=Can't Help Lovin' Dat Man
TTITLE5=Blues in the Dark
TTITLE6=I Want a Little Girl
TTITLE7=Song of the Islands
TTITLE8=Dickie's Dream
TTITLE9=Love Jumped Out
TTITLE10=Fiesta in Blue
TTITLE11=Royal Garden Blues
TTITLE12=St. Louis Blues
TTITLE13=Destination K.C.
TTITLE14=A Shanty in Old Shanty Town
TTITLE15=Rattle and Roll
TTITLE16=Love Me or Leave Me
TTITLE17=Them There Eyes
TTITLE18=(You Came Along from) Out of Nowhere
TTITLE19=If Dreams Come True
TTITLE20=Skip a Page
TTITLE21=I Don't Know His Name
EXTD=YEAR: 1997
EXTT0=
EXTT1=
EXTT2=
EXTT3=
EXTT4=
EXTT5=
EXTT6=
EXTT7=
EXTT8=
EXTT9=
EXTT10=
EXTT11=
EXTT12=
EXTT13=
EXTT14=
EXTT15=
EXTT16=
EXTT17=
EXTT18=
EXTT19=
EXTT20=
EXTT21=
PLAYORDER=
